<svg version="1.1" id="Layer_1" xmlns="http://www.w3.org/2000/svg" xmlns:xlink="http://www.w3.org/1999/xlink" x="0px" y="0px"
	 width="100%" viewBox="0 0 512 512" enable-background="new 0 0 512 512" xml:space="preserve">
<path fill="#000000" opacity="1.000000" stroke="none" 
	d="
M512.773132,234.689560 
	C513.000000,249.354233 513.000000,263.708466 513.000000,278.531342 
	C511.873657,287.683380 512.058899,296.462402 510.372009,305.134521 
	C501.699554,349.718964 482.946228,389.413025 453.402252,423.953339 
	C430.172516,451.111511 402.707489,472.888214 370.572510,488.620941 
	C347.244232,500.042084 322.720245,507.824432 297.023499,511.676361 
	C291.301971,512.534058 285.441620,512.629822 279.310547,512.773193 
	C264.645782,513.000000 250.291550,513.000000 235.468658,513.000000 
	C226.144836,511.919800 217.199799,512.025146 208.373642,510.289825 
	C163.985397,501.562408 124.458260,482.821991 90.052330,453.399750 
	C62.891964,430.173553 41.144157,402.696533 25.387348,370.573029 
	C13.944964,347.245331 6.278815,322.702576 2.284783,297.034088 
	C1.700166,293.276917 1.874377,289.414551 1.226542,285.308838 
	C1.000000,266.645782 1.000000,248.291550 1.000000,229.468658 
	C2.271074,219.490509 3.283325,209.963699 5.403514,200.560165 
	C14.814238,158.821304 33.340546,121.730209 61.271168,89.300034 
	C84.379509,62.468979 111.648796,41.008022 143.431519,25.377138 
	C166.745499,13.911219 191.293381,6.205395 216.980362,2.324273 
	C222.699966,1.460077 228.561859,1.369919 234.691147,1.226519 
	C249.354233,1.000000 263.708466,1.000000 278.531342,1.000000 
	C287.683380,2.126250 296.462433,1.941132 305.134552,3.628001 
	C349.719055,12.300402 389.413116,31.053808 423.953430,60.597839 
	C451.111603,83.827614 472.888306,111.292671 488.621094,143.427689 
	C500.042236,166.755951 507.824585,191.279953 511.676453,216.976730 
	C512.534058,222.698242 512.630005,228.558609 512.773132,234.689560 
z"/>
<path fill="#FFFFFF" opacity="1.000000" stroke="none" 
	d="
M513.000000,234.531342 
	C510.614349,231.222687 511.758240,226.808609 511.254425,222.789810 
	C508.873474,203.798340 504.230927,185.376450 497.673279,167.531387 
	C490.113983,146.960541 479.910492,127.615578 467.182037,109.689034 
	C454.857361,92.331032 440.460571,76.909676 424.473267,62.835400 
	C407.345459,47.757072 388.503906,35.364899 367.991821,25.578657 
	C347.479187,15.792154 326.086914,8.600122 303.541779,4.859804 
	C295.483032,3.522828 287.483429,2.132004 279.159912,1.403497 
	C355.594940,1.000000 432.189972,1.034290 508.784668,0.895053 
	C512.473450,0.888347 513.096985,1.757501 513.091431,5.277043 
	C512.971313,81.538780 513.000000,157.800751 513.000000,234.531342 
z"/>
<path fill="#FFFFFF" opacity="1.000000" stroke="none" 
	d="
M279.468658,513.000000 
	C282.777344,510.614349 287.191437,511.758270 291.210266,511.254456 
	C310.201691,508.873505 328.623596,504.230896 346.468628,497.673279 
	C367.039459,490.114044 386.384369,479.910492 404.310883,467.182068 
	C421.668884,454.857361 437.090271,440.460602 451.164581,424.473297 
	C466.242859,407.345490 478.635162,388.503967 488.421387,367.991882 
	C498.207916,347.479218 505.399841,326.086914 509.140198,303.541779 
	C510.477173,295.483032 511.867889,287.483429 512.596558,279.159912 
	C513.000000,355.594940 512.965698,432.189972 513.104919,508.784668 
	C513.111633,512.473389 512.242493,513.096985 508.722961,513.091431 
	C432.461212,512.971313 356.199249,513.000000 279.468658,513.000000 
z"/>
<path fill="#FFFFFF" opacity="1.000000" stroke="none" 
	d="
M234.531342,1.000000 
	C231.022949,3.213011 226.513550,2.204467 222.306885,2.788185 
	C203.243484,5.433422 184.724792,10.026003 166.738388,16.742939 
	C145.874374,24.534504 126.390480,34.945499 108.259193,47.940788 
	C91.634598,59.856178 76.911224,73.728127 63.329941,89.003716 
	C53.043888,100.572983 44.181225,113.056068 36.243706,126.267433 
	C25.204960,144.640533 16.923056,164.162292 10.845124,184.744766 
	C7.597884,195.741302 5.617931,206.968018 3.206203,218.109711 
	C2.470766,221.507248 2.403569,225.196671 1.387551,228.861237 
	C1.000000,154.404083 1.035467,79.808090 0.894364,5.212434 
	C0.887372,1.515761 1.768156,0.903741 5.279854,0.909229 
	C81.540657,1.028415 157.801697,1.000000 234.531342,1.000000 
z"/>
<path fill="#FFFFFF" opacity="1.000000" stroke="none" 
	d="
M1.000000,285.468658 
	C4.121727,290.804047 3.637474,297.423615 4.758955,303.610107 
	C7.437035,318.383362 11.242291,332.817474 16.486385,346.786438 
	C24.297277,367.592712 34.617073,387.142151 47.623810,405.287384 
	C59.738186,422.187683 73.797768,437.160828 89.315178,450.951874 
	C106.482559,466.209259 125.475487,478.634033 146.105545,488.479279 
	C166.587540,498.253876 187.966187,505.421082 210.487961,509.145172 
	C218.537567,510.476227 226.527145,511.864288 234.840118,512.596497 
	C158.405975,513.000000 81.811905,512.966003 5.218135,513.104370 
	C1.537262,513.110962 0.902078,512.253174 0.907865,508.725861 
	C1.029712,434.463165 1.000000,360.200226 1.000000,285.468658 
z"/>
<path fill="#FFFFFF" opacity="1.000000" stroke="none" 
	d="
M218.250000,212.250000 
	C226.539368,203.957123 234.466476,195.797943 242.647308,187.901611 
	C252.294250,178.590103 269.483673,180.863922 276.462616,191.921692 
	C277.155884,193.020172 278.320251,193.820618 279.262543,194.762833 
	C310.729645,226.227600 342.219879,257.669312 373.648438,289.172577 
	C382.852448,298.398468 382.778839,311.129181 375.588104,319.830170 
	C367.127350,330.067993 353.341339,332.323425 343.199402,323.870087 
	C340.801117,321.871124 338.409546,319.888885 336.208221,317.690094 
	C310.855774,292.366943 285.488708,267.058014 260.242767,241.628967 
	C258.006958,239.376938 256.972595,239.401199 254.751602,241.636887 
	C228.440475,268.122040 201.853760,294.335052 175.690720,320.964661 
	C166.205704,330.618774 149.649689,330.744232 141.365875,320.897003 
	C132.767609,310.675934 132.029541,298.541748 143.764557,286.763367 
	C168.468658,261.968018 193.250229,237.249863 218.250000,212.250000 
z"/>
</svg>