<?xml version="1.0" standalone="no"?>
<!DOCTYPE svg PUBLIC "-//W3C//DTD SVG 20010904//EN"
 "http://www.w3.org/TR/2001/REC-SVG-20010904/DTD/svg10.dtd">
<svg version="1.0" xmlns="http://www.w3.org/2000/svg"
 width="512.000000pt" height="512.000000pt" viewBox="0 0 512.000000 512.000000"
 preserveAspectRatio="xMidYMid meet">

<g transform="translate(0.000000,512.000000) scale(0.100000,-0.100000)"
fill="#000000" stroke="none">
<path d="M2474 4676 c-43 -19 -101 -81 -115 -123 -18 -56 -7 -145 24 -190 52
-75 79 -85 262 -99 90 -7 207 -22 260 -33 436 -92 824 -352 1070 -721 521
-781 321 -1824 -453 -2358 -501 -345 -1172 -393 -1715 -121 -700 350 -1075
1118 -917 1876 37 180 86 305 209 536 51 96 54 147 15 226 -37 73 -86 104
-174 109 -105 6 -151 -24 -224 -145 -137 -230 -241 -543 -276 -833 -13 -110
-13 -355 1 -478 52 -475 268 -922 614 -1267 351 -352 787 -560 1284 -615 171
-19 442 -8 615 24 423 80 802 282 1111 591 407 407 625 931 625 1505 0 574
-218 1098 -625 1505 -296 296 -654 493 -1055 579 -210 45 -470 61 -536 32z"/>
</g>
</svg>
