<svg version="1.1" id="Layer_1" xmlns="http://www.w3.org/2000/svg" xmlns:xlink="http://www.w3.org/1999/xlink" x="0px" y="0px"
	 width="100%" viewBox="0 0 512 512" enable-background="new 0 0 512 512" xml:space="preserve">
<path fill="#000000" opacity="1.000000" stroke="none" 
	d="
M271.000000,513.000000 
	C180.688583,513.000000 90.877167,513.000000 1.032874,513.000000 
	C1.032874,342.396881 1.032874,171.793777 1.032874,1.095328 
	C171.561432,1.095328 342.122955,1.095328 512.842224,1.095328 
	C512.842224,171.666550 512.842224,342.333252 512.842224,513.000000 
	C432.460419,513.000000 351.980194,513.000000 271.000000,513.000000 
M253.500916,497.000031 
	C266.854401,496.324249 280.310913,496.457886 293.536163,494.774658 
	C311.424896,492.497925 328.735657,487.323608 345.553589,480.747314 
	C362.103149,474.275879 377.813690,466.065765 392.393127,455.954956 
	C408.754822,444.608093 424.088135,431.936707 436.892059,416.539459 
	C443.781250,408.254913 451.278412,400.245789 456.755585,391.070312 
	C465.298462,376.759064 473.187195,361.924591 479.858276,346.658600 
	C491.057831,321.029755 496.443268,293.950806 497.063690,265.900085 
	C497.528107,244.901764 496.629822,224.012115 491.698547,203.580536 
	C486.007812,180.002411 477.512512,157.457108 465.168243,136.391983 
	C454.939850,118.937561 442.845276,102.947266 428.799042,88.512390 
	C421.603424,81.117653 413.442749,74.629517 405.474762,68.025383 
	C387.523132,53.146542 367.334320,42.034035 345.765045,33.363503 
	C323.741669,24.510424 300.803558,18.637442 277.220490,17.303734 
	C253.721725,15.974792 230.176361,16.594435 206.818085,21.762562 
	C176.277740,28.519756 147.922485,40.149513 122.183914,57.602852 
	C103.269287,70.428871 86.220451,85.585068 71.748138,103.576454 
	C57.888481,120.806213 46.183788,139.189087 37.126877,159.380249 
	C25.961750,184.271423 19.101837,210.347885 17.279556,237.390823 
	C15.882351,258.125580 16.035479,279.101593 20.082966,299.696991 
	C25.373352,326.616791 34.146191,352.320160 48.021347,376.126801 
	C60.706543,397.891724 75.988724,417.468048 94.768654,434.464813 
	C114.194893,452.046539 135.565170,466.381012 159.521103,476.867188 
	C189.145203,489.834442 219.977127,497.360626 253.500916,497.000031 
z"/>
<path fill="#FF6174" opacity="1.000000" stroke="none" 
	d="
M253.001282,497.000061 
	C219.977127,497.360626 189.145203,489.834442 159.521103,476.867188 
	C135.565170,466.381012 114.194893,452.046539 94.768654,434.464813 
	C75.988724,417.468048 60.706543,397.891724 48.021347,376.126801 
	C34.146191,352.320160 25.373352,326.616791 20.082966,299.696991 
	C16.035479,279.101593 15.882351,258.125580 17.279556,237.390823 
	C19.101837,210.347885 25.961750,184.271423 37.126877,159.380249 
	C46.183788,139.189087 57.888481,120.806213 71.748138,103.576454 
	C86.220451,85.585068 103.269287,70.428871 122.183914,57.602852 
	C147.922485,40.149513 176.277740,28.519756 206.818085,21.762562 
	C230.176361,16.594435 253.721725,15.974792 277.220490,17.303734 
	C300.803558,18.637442 323.741669,24.510424 345.765045,33.363503 
	C367.334320,42.034035 387.523132,53.146542 405.474762,68.025383 
	C413.442749,74.629517 421.603424,81.117653 428.799042,88.512390 
	C442.845276,102.947266 454.939850,118.937561 465.168243,136.391983 
	C477.512512,157.457108 486.007812,180.002411 491.698547,203.580536 
	C496.629822,224.012115 497.528107,244.901764 497.063690,265.900085 
	C496.443268,293.950806 491.057831,321.029755 479.858276,346.658600 
	C473.187195,361.924591 465.298462,376.759064 456.755585,391.070312 
	C451.278412,400.245789 443.781250,408.254913 436.892059,416.539459 
	C424.088135,431.936707 408.754822,444.608093 392.393127,455.954956 
	C377.813690,466.065765 362.103149,474.275879 345.553589,480.747314 
	C328.735657,487.323608 311.424896,492.497925 293.536163,494.774658 
	C280.310913,496.457886 266.854401,496.324249 253.001282,497.000061 
M292.999817,156.291534 
	C292.818665,151.834335 293.084442,147.304855 292.377533,142.932663 
	C289.594788,125.721474 272.714417,112.661827 254.554077,113.785904 
	C237.688019,114.829857 220.989380,129.617386 221.167709,147.677353 
	C221.292389,160.305206 223.051590,172.912949 223.961670,185.538254 
	C224.731293,196.215118 225.213837,206.913223 226.031281,217.586014 
	C227.260712,233.637589 228.612106,249.680542 230.033615,265.716370 
	C230.626114,272.400208 230.993607,279.174561 232.426437,285.696198 
	C234.392593,294.645355 245.185303,305.195496 259.219086,304.316071 
	C268.181519,303.754425 280.709381,293.941467 281.870422,284.347809 
	C283.349365,272.127838 284.006348,259.807983 284.994659,247.529343 
	C285.377686,242.771027 285.623016,238.000778 286.060638,233.247879 
	C287.338745,219.366440 288.715759,205.494095 289.989471,191.612259 
	C291.040283,180.159683 291.999207,168.698654 292.999817,156.291534 
M230.046097,385.261871 
	C239.734070,400.098816 253.293533,401.516510 263.963074,399.444153 
	C278.167328,396.685150 288.866150,382.634735 288.160461,367.723480 
	C287.219177,347.834015 269.149567,333.597687 249.174805,338.601898 
	C227.396286,344.057953 220.284637,367.643982 230.046097,385.261871 
z"/>
<path fill="#000000" opacity="1.000000" stroke="none" 
	d="
M292.999329,156.766449 
	C291.999207,168.698654 291.040283,180.159683 289.989471,191.612259 
	C288.715759,205.494095 287.338745,219.366440 286.060638,233.247879 
	C285.623016,238.000778 285.377686,242.771027 284.994659,247.529343 
	C284.006348,259.807983 283.349365,272.127838 281.870422,284.347809 
	C280.709381,293.941467 268.181519,303.754425 259.219086,304.316071 
	C245.185303,305.195496 234.392593,294.645355 232.426437,285.696198 
	C230.993607,279.174561 230.626114,272.400208 230.033615,265.716370 
	C228.612106,249.680542 227.260712,233.637589 226.031281,217.586014 
	C225.213837,206.913223 224.731293,196.215118 223.961670,185.538254 
	C223.051590,172.912949 221.292389,160.305206 221.167709,147.677353 
	C220.989380,129.617386 237.688019,114.829857 254.554077,113.785904 
	C272.714417,112.661827 289.594788,125.721474 292.377533,142.932663 
	C293.084442,147.304855 292.818665,151.834335 292.999329,156.766449 
z"/>
<path fill="#000000" opacity="1.000000" stroke="none" 
	d="
M229.983856,384.888428 
	C220.284637,367.643982 227.396286,344.057953 249.174805,338.601898 
	C269.149567,333.597687 287.219177,347.834015 288.160461,367.723480 
	C288.866150,382.634735 278.167328,396.685150 263.963074,399.444153 
	C253.293533,401.516510 239.734070,400.098816 229.983856,384.888428 
z"/>
</svg>